<svg id="Layer_1" data-name="Layer 1" xmlns="http://www.w3.org/2000/svg" xmlns:xlink="http://www.w3.org/1999/xlink" viewBox="0 0 256 256"><defs><style>.cls-1,.cls-3,.cls-4,.cls-5{fill:none;}.cls-2{clip-path:url(#clip-path);}.cls-3,.cls-4,.cls-5{stroke:#d3d3d3;stroke-miterlimit:10;}.cls-3{stroke-width:1.94px;}.cls-4{stroke-width:1.98px;}.cls-5{stroke-width:2.02px;}.cls-6{fill:#202630;}.cls-7{fill:#fff;}.cls-8{fill:#424242;}.cls-10,.cls-8{fill-opacity:0.16;}.cls-9{fill:#a8a8a8;}.cls-10{fill:#afafaf;}</style><clipPath id="clip-path"><rect class="cls-1" x="-1234.33" y="16" width="1168" height="598" rx="25.24"/></clipPath></defs><g class="cls-2"><line class="cls-3" x1="-417.34" y1="691.14" x2="25.08" y2="248.72"/><line class="cls-4" x1="-430.85" y1="691.25" x2="25.76" y2="234.64"/><line class="cls-5" x1="-444.37" y1="691.37" x2="26.44" y2="220.56"/></g><circle class="cls-6" cx="128" cy="128" r="128"/><path class="cls-7" d="M110.65,122.66H69.29a16,16,0,0,1-16-16V69.29a16,16,0,0,1,16-16h37.36a16,16,0,0,1,16,16v41.36a12,12,0,0,1-12,12"/><path class="cls-7" d="M133.34,110.65V69.29a16,16,0,0,1,16-16h37.36a16,16,0,0,1,16,16v37.36a16,16,0,0,1-16,16H145.35a12,12,0,0,1-12-12"/><path class="cls-7" d="M122.66,145.35v41.36a16,16,0,0,1-16,16H69.29a16,16,0,0,1-16-16V149.35a16,16,0,0,1,16-16h41.36a12,12,0,0,1,12,12"/><path class="cls-7" d="M145.35,133.34h41.36a16,16,0,0,1,16,16v37.36a16,16,0,0,1-16,16H149.35a16,16,0,0,1-16-16V145.35a12,12,0,0,1,12-12"/><path class="cls-8" d="M103.85,112.25h-29a11.2,11.2,0,0,1-11.21-11.2V74.89A11.21,11.21,0,0,1,74.89,63.68h26.16a11.2,11.2,0,0,1,11.2,11.21v29a8.4,8.4,0,0,1-8.4,8.4"/><path class="cls-9" d="M143.75,103.85v-29A11.2,11.2,0,0,1,155,63.68h26.16a11.21,11.21,0,0,1,11.21,11.21v26.16a11.2,11.2,0,0,1-11.21,11.2h-29a8.4,8.4,0,0,1-8.4-8.4"/><path class="cls-9" d="M112.25,152.15v29a11.2,11.2,0,0,1-11.2,11.21H74.89a11.21,11.21,0,0,1-11.21-11.21V155a11.2,11.2,0,0,1,11.21-11.2h29a8.4,8.4,0,0,1,8.4,8.4"/><path class="cls-10" d="M152.15,143.75h29A11.2,11.2,0,0,1,192.32,155v26.16a11.21,11.21,0,0,1-11.21,11.21H155a11.2,11.2,0,0,1-11.2-11.21v-29a8.4,8.4,0,0,1,8.4-8.4"/></svg>