<svg id="Layer_1" data-name="Layer 1" xmlns="http://www.w3.org/2000/svg" xmlns:xlink="http://www.w3.org/1999/xlink" viewBox="0 0 256 256"><defs><style>.cls-1,.cls-5,.cls-6,.cls-7{fill:none;}.cls-2{fill:#202630;}.cls-3{fill:#fff;}.cls-4{clip-path:url(#clip-path);}.cls-5,.cls-6,.cls-7{stroke:#d3d3d3;stroke-miterlimit:10;}.cls-5{stroke-width:1.94px;}.cls-6{stroke-width:1.98px;}.cls-7{stroke-width:2.02px;}</style><clipPath id="clip-path"><rect class="cls-1" x="-1234.33" y="16" width="1168" height="598" rx="25.24"/></clipPath></defs><circle class="cls-2" cx="128" cy="128" r="128"/><path class="cls-3" d="M68.57,82.29a4.57,4.57,0,1,0,0,9.14h50.29a4.57,4.57,0,1,0,0-9.14ZM96,109.71a4.58,4.58,0,0,0,0,9.15h36.57a4.58,4.58,0,0,0,0-9.15Zm-13.71,32a4.57,4.57,0,0,1,4.57-4.57H160a4.58,4.58,0,0,1,0,9.15H86.86a4.57,4.57,0,0,1-4.57-4.58M68.57,164.57a4.57,4.57,0,1,0,0,9.14h68.57a4.57,4.57,0,1,0,0-9.14Zm82.29-50.28a4.57,4.57,0,0,1,4.57-4.58h22.86a4.58,4.58,0,0,1,0,9.15H155.43a4.57,4.57,0,0,1-4.57-4.57m-9.15-32a4.57,4.57,0,0,0,0,9.14h45.72a4.57,4.57,0,0,0,0-9.14Z"/><g class="cls-4"><line class="cls-5" x1="-417.34" y1="691.14" x2="25.08" y2="248.72"/><line class="cls-6" x1="-430.85" y1="691.25" x2="25.76" y2="234.64"/><line class="cls-7" x1="-444.37" y1="691.37" x2="26.44" y2="220.56"/></g></svg>